<svg xmlns="http://www.w3.org/2000/svg" width="512" height="512" viewBox="0 0 512 512">
  <defs>
    <linearGradient id="bgGrad" x1="0%" y1="0%" x2="100%" y2="100%">
      <stop offset="0%" style="stop-color:#22c55e"/>
      <stop offset="100%" style="stop-color:#16a34a"/>
    </linearGradient>
  </defs>
  <rect width="512" height="512" rx="64" fill="url(#bgGrad)"/>
  <g transform="translate(256, 256)">
    <!-- Shopping bag -->
    <path d="M-80 -40 L-80 80 Q-80 100 -60 100 L60 100 Q80 100 80 80 L80 -40 Q80 -60 60 -60 L-60 -60 Q-80 -60 -80 -40Z" 
          fill="white" opacity="0.95"/>
    <!-- Bag handles -->
    <path d="M-40 -60 L-40 -90 Q-40 -120 0 -120 Q40 -120 40 -90 L40 -60" 
          stroke="white" stroke-width="16" fill="none" stroke-linecap="round"/>
    <!-- Leaf/Fresh icon -->
    <path d="M-20 10 Q0 -30 40 -20 Q50 20 20 40 Q-10 60 -20 10" 
          fill="#22c55e"/>
    <path d="M0 10 Q10 20 20 25" stroke="#16a34a" stroke-width="3" fill="none"/>
  </g>
  <!-- SGM text -->
  <text x="256" y="440" font-family="Arial, sans-serif" font-size="72" font-weight="bold" fill="white" text-anchor="middle">SGM</text>
</svg>
